<svg width="81" height="37" viewBox="0 0 81 37" fill="none" xmlns="http://www.w3.org/2000/svg">
<path d="M11.4 36.48C9.128 36.48 7.16 36.048 5.496 35.184C3.832 34.32 2.536 33.104 1.608 31.536C0.712 29.968 0.264 28.128 0.264 26.016V10.944C0.264 8.832 0.712 6.992 1.608 5.424C2.536 3.856 3.832 2.64 5.496 1.776C7.16 0.911999 9.128 0.48 11.4 0.48C13.704 0.48 15.672 0.911999 17.304 1.776C18.968 2.64 20.248 3.856 21.144 5.424C22.072 6.992 22.536 8.832 22.536 10.944V26.016C22.536 28.128 22.072 29.968 21.144 31.536C20.248 33.104 18.968 34.32 17.304 35.184C15.64 36.048 13.672 36.48 11.4 36.48ZM11.4 31.296C13.064 31.296 14.392 30.816 15.384 29.856C16.376 28.896 16.872 27.616 16.872 26.016V10.944C16.872 9.344 16.376 8.064 15.384 7.104C14.392 6.144 13.064 5.664 11.4 5.664C9.736 5.664 8.408 6.144 7.416 7.104C6.424 8.064 5.928 9.344 5.928 10.944V26.016C5.928 27.616 6.424 28.896 7.416 29.856C8.408 30.816 9.736 31.296 11.4 31.296ZM11.4 21.6C10.472 21.6 9.704 21.296 9.096 20.688C8.52 20.08 8.232 19.296 8.232 18.336C8.232 17.376 8.52 16.608 9.096 16.032C9.672 15.456 10.44 15.168 11.4 15.168C12.36 15.168 13.128 15.456 13.704 16.032C14.28 16.608 14.568 17.376 14.568 18.336C14.568 19.296 14.28 20.08 13.704 20.688C13.128 21.296 12.36 21.6 11.4 21.6ZM27.5093 36L36.7253 22.368L28.1333 9.6H34.9013L38.9813 16.08C39.2373 16.464 39.4613 16.896 39.6533 17.376C39.8773 17.856 40.0533 18.24 40.1813 18.528C40.3093 18.24 40.4853 17.856 40.7093 17.376C40.9333 16.896 41.1573 16.464 41.3813 16.08L45.5093 9.6H52.2773L43.6853 22.368L52.8533 36H46.0373L41.4773 28.752C41.2213 28.336 40.9813 27.888 40.7573 27.408C40.5333 26.928 40.3413 26.544 40.1813 26.256C40.0533 26.544 39.8773 26.928 39.6533 27.408C39.4293 27.888 39.1893 28.336 38.9333 28.752L34.2773 36H27.5093ZM68.9625 36.48C66.6905 36.48 64.7225 36.048 63.0585 35.184C61.3945 34.32 60.0985 33.104 59.1705 31.536C58.2745 29.968 57.8265 28.128 57.8265 26.016V10.944C57.8265 8.832 58.2745 6.992 59.1705 5.424C60.0985 3.856 61.3945 2.64 63.0585 1.776C64.7225 0.911999 66.6905 0.48 68.9625 0.48C71.2665 0.48 73.2345 0.911999 74.8665 1.776C76.5305 2.64 77.8105 3.856 78.7065 5.424C79.6345 6.992 80.0985 8.832 80.0985 10.944V26.016C80.0985 28.128 79.6345 29.968 78.7065 31.536C77.8105 33.104 76.5305 34.32 74.8665 35.184C73.2025 36.048 71.2345 36.48 68.9625 36.48ZM68.9625 31.296C70.6265 31.296 71.9545 30.816 72.9465 29.856C73.9385 28.896 74.4345 27.616 74.4345 26.016V10.944C74.4345 9.344 73.9385 8.064 72.9465 7.104C71.9545 6.144 70.6265 5.664 68.9625 5.664C67.2985 5.664 65.9705 6.144 64.9785 7.104C63.9865 8.064 63.4905 9.344 63.4905 10.944V26.016C63.4905 27.616 63.9865 28.896 64.9785 29.856C65.9705 30.816 67.2985 31.296 68.9625 31.296ZM68.9625 21.6C68.0345 21.6 67.2665 21.296 66.6585 20.688C66.0825 20.08 65.7945 19.296 65.7945 18.336C65.7945 17.376 66.0825 16.608 66.6585 16.032C67.2345 15.456 68.0025 15.168 68.9625 15.168C69.9225 15.168 70.6905 15.456 71.2665 16.032C71.8425 16.608 72.1305 17.376 72.1305 18.336C72.1305 19.296 71.8425 20.08 71.2665 20.688C70.6905 21.296 69.9225 21.6 68.9625 21.6Z" fill="#77A4D3"/>
</svg>
