<svg width="85" height="85" viewBox="0 0 85 85" fill="none" xmlns="http://www.w3.org/2000/svg">
<path d="M70.8333 31.6625C70.7965 31.3371 70.7253 31.0166 70.6208 30.7063V30.3875C70.4505 30.0234 70.2234 29.6886 69.9479 29.3958L48.6979 8.14584C48.405 7.87037 48.0703 7.64321 47.7062 7.47293H47.3875C47.0277 7.26659 46.6303 7.13413 46.2187 7.08334H24.7917C21.9737 7.08334 19.2712 8.20276 17.2786 10.1953C15.2861 12.1879 14.1667 14.8904 14.1667 17.7083V67.2917C14.1667 70.1094 15.2861 72.8121 17.2786 74.8046C19.2712 76.7972 21.9737 77.9167 24.7917 77.9167H60.2083C63.0261 77.9167 65.7287 76.7972 67.7213 74.8046C69.7138 72.8121 70.8333 70.1094 70.8333 67.2917V31.875C70.8333 31.875 70.8333 31.875 70.8333 31.6625ZM49.5833 19.1604L58.7562 28.3333H53.125C52.1857 28.3333 51.2847 27.9602 50.6207 27.296C49.9566 26.6318 49.5833 25.731 49.5833 24.7917V19.1604ZM63.75 67.2917C63.75 68.2309 63.3767 69.1319 62.7126 69.796C62.0486 70.4601 61.1476 70.8333 60.2083 70.8333H24.7917C23.8523 70.8333 22.9515 70.4601 22.2873 69.796C21.6231 69.1319 21.25 68.2309 21.25 67.2917V17.7083C21.25 16.769 21.6231 15.8682 22.2873 15.204C22.9515 14.5398 23.8523 14.1667 24.7917 14.1667H42.5V24.7917C42.5 27.6096 43.6195 30.3121 45.612 32.3047C47.6046 34.2973 50.3072 35.4167 53.125 35.4167H63.75V67.2917Z" fill="black"/>
</svg>
