<svg width="82" height="37" viewBox="0 0 82 37" fill="none" xmlns="http://www.w3.org/2000/svg">
<path d="M1.032 36V30.72H10.152V6.288L0.984 13.104V6.768L9.048 0.959999H16.152V30.72H23.496V36H1.032ZM40.1813 36.48C37.9093 36.48 35.9413 36.048 34.2773 35.184C32.6133 34.32 31.3173 33.104 30.3893 31.536C29.4933 29.968 29.0453 28.128 29.0453 26.016V10.944C29.0453 8.832 29.4933 6.992 30.3893 5.424C31.3173 3.856 32.6133 2.64 34.2773 1.776C35.9413 0.911999 37.9093 0.48 40.1813 0.48C42.4853 0.48 44.4533 0.911999 46.0853 1.776C47.7493 2.64 49.0293 3.856 49.9253 5.424C50.8533 6.992 51.3173 8.832 51.3173 10.944V26.016C51.3173 28.128 50.8533 29.968 49.9253 31.536C49.0293 33.104 47.7493 34.32 46.0853 35.184C44.4213 36.048 42.4533 36.48 40.1813 36.48ZM40.1813 31.296C41.8453 31.296 43.1733 30.816 44.1653 29.856C45.1573 28.896 45.6533 27.616 45.6533 26.016V10.944C45.6533 9.344 45.1573 8.064 44.1653 7.104C43.1733 6.144 41.8453 5.664 40.1813 5.664C38.5173 5.664 37.1893 6.144 36.1973 7.104C35.2053 8.064 34.7093 9.344 34.7093 10.944V26.016C34.7093 27.616 35.2053 28.896 36.1973 29.856C37.1893 30.816 38.5173 31.296 40.1813 31.296ZM40.1813 21.6C39.2533 21.6 38.4853 21.296 37.8773 20.688C37.3013 20.08 37.0133 19.296 37.0133 18.336C37.0133 17.376 37.3013 16.608 37.8773 16.032C38.4533 15.456 39.2213 15.168 40.1813 15.168C41.1413 15.168 41.9093 15.456 42.4853 16.032C43.0613 16.608 43.3493 17.376 43.3493 18.336C43.3493 19.296 43.0613 20.08 42.4853 20.688C41.9093 21.296 41.1413 21.6 40.1813 21.6ZM58.5945 36V30.72H67.7145V6.288L58.5465 13.104V6.768L66.6105 0.959999H73.7145V30.72H81.0585V36H58.5945Z" fill="#79C9CA"/>
</svg>
