<svg width="85" height="85" viewBox="0 0 85 85" fill="none" xmlns="http://www.w3.org/2000/svg">
<path d="M70.8333 31.6625C70.7965 31.3371 70.7253 31.0166 70.6208 30.7063V30.3875C70.4505 30.0234 70.2234 29.6886 69.9479 29.3958L48.6979 8.14584C48.405 7.87037 48.0703 7.64321 47.7062 7.47293C47.6007 7.45791 47.4934 7.45791 47.3875 7.47293C47.0277 7.26659 46.6303 7.13413 46.2187 7.08334H24.7917C21.9737 7.08334 19.2712 8.20276 17.2787 10.1953C15.2861 12.1879 14.1667 14.8904 14.1667 17.7083V67.2917C14.1667 70.1094 15.2861 72.8121 17.2787 74.8046C19.2712 76.7972 21.9737 77.9167 24.7917 77.9167H60.2083C63.0261 77.9167 65.7287 76.7972 67.7213 74.8046C69.7138 72.8121 70.8333 70.1094 70.8333 67.2917V31.875C70.8333 31.875 70.8333 31.875 70.8333 31.6625ZM49.5833 19.1604L58.7562 28.3333H53.125C52.1857 28.3333 51.2847 27.9602 50.6207 27.296C49.9566 26.6318 49.5833 25.731 49.5833 24.7917V19.1604ZM63.75 67.2917C63.75 68.2309 63.3767 69.1319 62.7126 69.796C62.0486 70.4601 61.1476 70.8333 60.2083 70.8333H24.7917C23.8523 70.8333 22.9515 70.4601 22.2873 69.796C21.6231 69.1319 21.25 68.2309 21.25 67.2917V17.7083C21.25 16.769 21.6231 15.8682 22.2873 15.204C22.9515 14.5398 23.8523 14.1667 24.7917 14.1667H42.5V24.7917C42.5 27.6096 43.6195 30.3121 45.6121 32.3047C47.6046 34.2973 50.3072 35.4167 53.125 35.4167H63.75V67.2917ZM49.5833 49.5833H46.0417V46.0417C46.0417 45.1024 45.6684 44.2014 45.0043 43.5374C44.3402 42.8733 43.4392 42.5 42.5 42.5C41.5607 42.5 40.6597 42.8733 39.9957 43.5374C39.3316 44.2014 38.9583 45.1024 38.9583 46.0417V49.5833H35.4167C34.4773 49.5833 33.5765 49.9566 32.9123 50.6207C32.2481 51.2848 31.875 52.1858 31.875 53.125C31.875 54.0643 32.2481 54.9653 32.9123 55.6293C33.5765 56.2934 34.4773 56.6667 35.4167 56.6667H38.9583V60.2083C38.9583 61.1476 39.3316 62.0486 39.9957 62.7127C40.6597 63.3767 41.5607 63.75 42.5 63.75C43.4392 63.75 44.3402 63.3767 45.0043 62.7127C45.6684 62.0486 46.0417 61.1476 46.0417 60.2083V56.6667H49.5833C50.5226 56.6667 51.4236 56.2934 52.0876 55.6293C52.7517 54.9653 53.125 54.0643 53.125 53.125C53.125 52.1858 52.7517 51.2848 52.0876 50.6207C51.4236 49.9566 50.5226 49.5833 49.5833 49.5833Z" fill="black"/>
</svg>
